<?xml version="1.0" encoding="UTF-8"?>
<svg width="752pt" height="752pt" version="1.1" viewBox="0 0 752 752" xmlns="http://www.w3.org/2000/svg">
 <g>
  <path d="m175.52 401.26c3-6.4727 6.3125-12.473 9.7891-18.469 3.4727-6 7.1055-11.684 10.734-17.363 7.418-11.367 15.312-22.258 23.68-32.836 16.418-21.152 34.254-41.043 53.043-59.828 18.785-18.785 38.676-36.625 59.828-53.199 10.578-8.207 21.469-16.102 32.836-23.68 5.6836-3.6289 11.523-7.418 17.363-10.734 6-3.4727 11.996-6.7891 18.469-9.7891-3 6.4727-6.3125 12.473-9.7891 18.469-3.4727 6-7.1055 11.684-10.734 17.363-7.418 11.367-15.312 22.258-23.68 32.836-16.574 21.152-34.254 41.043-53.199 59.828-18.785 18.785-38.676 36.625-59.828 53.043-10.578 8.207-21.469 16.102-32.836 23.68-5.6836 3.6289-11.523 7.418-17.363 10.734-5.8438 3.6328-12 7.1055-18.312 9.9453z"/>
  <path d="m350.74 576.48c3-6.4727 6.3125-12.473 9.7891-18.469 3.4727-6 7.1055-11.684 10.734-17.363 7.418-11.367 15.312-22.258 23.68-32.836 16.418-21.152 34.254-41.043 53.043-59.828 18.785-18.785 38.676-36.625 59.828-53.199 10.578-8.207 21.469-16.102 32.836-23.68 5.6836-3.6289 11.523-7.418 17.363-10.734 6-3.4727 11.996-6.7891 18.469-9.7891-3 6.4727-6.3125 12.473-9.7891 18.469-3.4727 6-7.1055 11.684-10.734 17.363-7.418 11.367-15.312 22.258-23.68 32.836-16.574 21.152-34.254 41.043-53.199 59.828-18.785 18.785-38.676 36.625-59.828 53.043-10.578 8.207-21.469 16.102-32.836 23.68-5.6836 3.6289-11.523 7.418-17.363 10.734-5.8398 3.6289-11.996 7.1016-18.312 9.9453z"/>
  <path d="m183.73 555.33c6-9.4727 12.473-18.629 18.941-27.625 6.4727-8.9961 13.102-17.84 19.891-26.52 6.7891-8.6836 13.574-17.363 20.68-25.891 6.9453-8.5234 14.051-16.891 21.152-25.258 28.574-33.309 58.566-65.355 89.508-96.293 30.941-30.941 62.984-60.934 96.293-89.664 8.3672-7.1055 16.734-14.207 25.258-21.152 4.2617-3.4727 8.5234-6.9453 12.785-10.418l12.945-10.262c8.6836-6.7891 17.523-13.418 26.52-19.891 8.9961-6.4727 18.152-12.945 27.625-18.941-6 9.4727-12.312 18.629-18.941 27.625-6.4727 8.9961-13.102 17.84-19.891 26.52l-10.262 12.945c-3.4727 4.2617-6.9453 8.5234-10.418 12.785-6.9453 8.5234-14.051 16.891-21.152 25.258-28.574 33.309-58.566 65.195-89.664 96.293-30.941 30.941-62.984 60.934-96.293 89.508-8.3672 7.1055-16.734 14.207-25.258 21.152-8.5234 6.9453-17.051 13.891-25.891 20.68-8.6836 6.7891-17.523 13.418-26.52 19.891-8.6797 6.9453-17.836 13.258-27.309 19.258z"/>
 </g>
</svg>
